<?xml version="1.0" encoding="UTF-8" standalone="no"?>
<!DOCTYPE svg PUBLIC "-//W3C//DTD SVG 1.1//EN" "http://www.w3.org/Graphics/SVG/1.1/DTD/svg11.dtd">
<svg version="1.1" xmlns="http://www.w3.org/2000/svg" xmlns:xlink="http://www.w3.org/1999/xlink" preserveAspectRatio="xMidYMid meet" viewBox="37.117117117116905 33.052230697494096 572.9729729729731 582.8828828828831" width="572.97" height="582.88"><defs><path d="M600.09 33.05C605.61 33.05 610.09 37.53 610.09 43.05C610.09 157.63 610.09 491.36 610.09 605.94C610.09 611.46 605.61 615.94 600.09 615.94C487.5 615.94 159.71 615.94 47.12 615.94C41.59 615.94 37.12 611.46 37.12 605.94C37.12 491.36 37.12 157.63 37.12 43.05C37.12 37.53 41.59 33.05 47.12 33.05C159.71 33.05 487.5 33.05 600.09 33.05Z" id="b81xMjkdb"></path><path d="M180.41 96.39C159.58 96.39 141.35 116.35 141.35 139.16C141.35 176.22 141.35 472.76 141.35 509.83C141.35 532.64 159.58 552.6 180.41 552.6C209.05 552.6 438.16 552.6 466.8 552.6C487.63 552.6 505.86 532.64 505.86 509.83C505.86 472.76 505.86 176.22 505.86 139.16C505.86 116.35 487.63 96.39 466.8 96.39C409.52 96.39 209.05 96.39 180.41 96.39ZM235.08 495.57C231.96 495.57 206.96 495.57 203.84 495.57C198.63 495.57 193.42 489.87 193.42 484.17C193.42 480.75 193.42 453.37 193.42 449.95C193.42 444.25 198.63 438.55 203.84 438.55C206.96 438.55 231.96 438.55 235.08 438.55C240.29 438.55 245.5 444.25 245.5 449.95C245.5 452.23 245.5 463.64 245.5 484.17C242.02 491.77 238.55 495.57 235.08 495.57ZM235.08 381.52C231.96 381.52 206.96 381.52 203.84 381.52C198.63 381.52 193.42 375.82 193.42 370.12C193.42 366.69 193.42 339.32 193.42 335.9C193.42 330.2 198.63 324.49 203.84 324.49C206.96 324.49 231.96 324.49 235.08 324.49C240.29 324.49 245.5 330.2 245.5 335.9C245.5 338.18 245.5 349.59 245.5 370.12C242.02 377.72 238.55 381.52 235.08 381.52ZM339.23 495.57C336.1 495.57 311.11 495.57 307.98 495.57C302.77 495.57 297.57 489.87 297.57 484.17C297.57 480.75 297.57 453.37 297.57 449.95C297.57 444.25 302.77 438.55 307.98 438.55C311.11 438.55 336.1 438.55 339.23 438.55C344.43 438.55 349.64 444.25 349.64 449.95C349.64 452.23 349.64 463.64 349.64 484.17C346.17 491.77 342.7 495.57 339.23 495.57ZM339.23 381.52C336.1 381.52 311.11 381.52 307.98 381.52C302.77 381.52 297.57 375.82 297.57 370.12C297.57 366.69 297.57 339.32 297.57 335.9C297.57 330.2 302.77 324.49 307.98 324.49C311.11 324.49 336.1 324.49 339.23 324.49C344.43 324.49 349.64 330.2 349.64 335.9C349.64 338.18 349.64 349.59 349.64 370.12C346.17 377.72 342.7 381.52 339.23 381.52ZM443.37 495.57C440.25 495.57 415.25 495.57 412.13 495.57C406.92 495.57 401.71 489.87 401.71 484.17C401.71 469.34 401.71 350.73 401.71 335.9C401.71 330.2 406.92 324.49 412.13 324.49C415.25 324.49 440.25 324.49 443.37 324.49C448.58 324.49 453.78 330.2 453.78 335.9C453.78 345.78 453.78 395.21 453.78 484.17C450.31 491.77 446.84 495.57 443.37 495.57ZM443.37 267.47C419.42 267.47 227.79 267.47 203.84 267.47C198.63 267.47 193.42 261.76 193.42 256.06C193.42 246.94 193.42 173.94 193.42 164.82C193.42 159.12 198.63 153.41 203.84 153.41C227.79 153.41 419.42 153.41 443.37 153.41C448.58 153.41 453.78 159.12 453.78 164.82C453.78 170.9 453.78 201.32 453.78 256.06C450.31 263.66 446.84 267.47 443.37 267.47Z" id="fpGc5h0h4"></path></defs><g><g><g><use xlink:href="#b81xMjkdb" opacity="1" fill="#1d62ab" fill-opacity="1"></use></g><g><use xlink:href="#fpGc5h0h4" opacity="1" fill="#de643a" fill-opacity="1"></use></g></g></g></svg>